<?xml version="1.0" standalone="no"?>
<!DOCTYPE svg PUBLIC "-//W3C//DTD SVG 20010904//EN"
 "http://www.w3.org/TR/2001/REC-SVG-20010904/DTD/svg10.dtd">
<svg version="1.0" xmlns="http://www.w3.org/2000/svg"
 width="1962.000000pt" height="1289.000000pt" viewBox="0 0 1962.000000 1289.000000"
 preserveAspectRatio="xMidYMid meet">

<g transform="translate(0.000000,1289.000000) scale(0.100000,-0.100000)"
fill="#000000" stroke="none">
<path d="M0 6445 l0 -6445 9808 2 9807 3 3 6443 2 6442 -9810 0 -9810 0 0
-6445z m19590 0 l0 -6415 -9780 0 -9780 0 0 6415 0 6415 9780 0 9780 0 0
-6415z"/>
<path d="M12070 12318 c0 -18 10 -61 22 -96 26 -75 22 -82 -62 -82 -71 0 -87
-10 -75 -46 10 -27 103 -86 266 -168 91 -45 128 -75 184 -149 92 -118 103
-127 160 -127 29 0 54 3 58 6 3 3 -55 87 -129 187 -73 100 -148 209 -166 242
-18 33 -60 87 -94 120 -34 33 -69 76 -79 95 -21 41 -32 50 -62 50 -19 0 -23
-5 -23 -32z"/>
<path d="M12140 11833 c-14 -10 -20 -23 -18 -41 l3 -27 110 -3 110 -2 -63 36
c-85 48 -115 56 -142 37z"/>
<path d="M11620 11668 c0 -41 79 -90 169 -104 33 -5 41 -4 41 9 0 22 -43 53
-105 76 -84 31 -105 35 -105 19z"/>
<path d="M10703 11496 c-28 -14 -56 -33 -62 -45 -14 -25 -15 -151 -1 -151 12
0 417 89 439 96 36 12 -14 19 -177 24 l-177 6 63 28 c34 16 62 32 62 36 0 9
-55 30 -79 30 -9 0 -39 -11 -68 -24z"/>
<path d="M14476 11420 c-42 -38 -54 -81 -32 -115 9 -14 43 -39 77 -55 60 -31
63 -35 98 -122 17 -44 37 -34 62 30 15 39 22 80 23 132 l1 74 -70 43 c-84 51
-113 53 -159 13z"/>
<path d="M11333 11336 c-194 -96 -396 -211 -525 -298 -116 -77 -176 -104 -263
-118 -38 -6 -114 -26 -167 -45 -54 -18 -98 -30 -98 -27 0 4 10 30 22 59 12 29
19 55 16 59 -26 25 -238 34 -257 10 -9 -10 -10 -43 -5 -114 7 -98 6 -101 -19
-134 -15 -18 -43 -86 -64 -152 -36 -111 -40 -120 -79 -147 -23 -16 -44 -36
-48 -44 -19 -50 13 -326 41 -357 16 -18 16 -25 -2 -115 -18 -89 -18 -96 -2
-108 24 -17 22 -26 -28 -150 -25 -61 -54 -156 -65 -211 -25 -126 -60 -430 -60
-521 0 -38 -7 -96 -17 -128 -29 -104 -13 -446 26 -547 5 -15 32 -49 59 -76 72
-73 182 -314 182 -402 0 -36 -21 -91 -50 -127 -11 -14 -20 -36 -20 -50 0 -13
22 -81 49 -151 27 -70 56 -161 65 -202 38 -187 58 -613 35 -750 -29 -176 -23
-282 18 -330 35 -42 47 -97 88 -400 43 -317 72 -468 121 -621 52 -163 50 -193
-14 -319 -29 -56 -55 -121 -58 -143 -10 -63 -30 -94 -113 -181 -88 -90 -180
-159 -242 -181 -107 -38 -349 -177 -1039 -598 -845 -516 -893 -548 -983 -650
-35 -41 -110 -137 -166 -213 -56 -77 -122 -166 -147 -199 -101 -134 -235 -344
-264 -415 -38 -91 -130 -408 -240 -820 -89 -336 -173 -627 -220 -764 -16 -50
-30 -93 -30 -98 0 -4 2660 -8 5911 -8 l5910 0 -33 46 c-72 100 -126 161 -196
217 -65 53 -81 74 -159 205 -132 224 -197 316 -299 423 -59 61 -102 116 -115
145 -11 26 -49 79 -85 117 -36 38 -109 128 -163 200 -68 92 -133 165 -215 241
-64 60 -159 161 -210 225 -96 118 -141 158 -233 204 -67 34 -87 62 -108 149
-43 177 -98 228 -335 313 -58 21 -163 67 -235 102 -182 92 -276 114 -465 112
l-145 -1 -190 75 c-236 94 -331 122 -467 136 -121 13 -177 30 -294 89 -106 53
-175 76 -309 102 -162 31 -248 57 -358 106 -127 57 -140 57 -171 -3 -13 -27
-33 -56 -44 -67 -32 -28 -747 -384 -788 -392 -29 -5 -39 -3 -46 10 -21 38
-276 227 -445 330 -349 214 -563 365 -563 397 0 15 73 11 588 -37 287 -26 522
-44 556 -41 40 4 81 16 124 39 107 54 109 81 7 98 -32 5 -63 14 -68 19 -7 7
-4 58 8 151 19 153 18 158 -36 180 -28 12 -30 16 -27 59 l3 46 -40 -2 c-22 -2
-61 -5 -87 -8 -55 -6 -78 10 -78 56 0 40 -22 80 -64 117 -38 33 -58 38 -176
46 -100 6 -199 27 -394 85 -185 55 -216 69 -268 119 -45 43 -84 51 -263 51
-143 1 -190 10 -212 40 -7 12 -45 41 -84 66 -38 25 -72 52 -75 60 -8 20 44
112 76 135 14 10 52 23 83 29 32 6 102 24 155 40 128 40 179 51 286 62 59 6
109 18 145 35 l56 26 -36 18 c-20 11 -54 39 -75 63 -22 24 -50 50 -64 57 -17
10 -107 17 -297 24 l-273 11 36 45 c54 69 65 72 279 81 104 4 234 15 287 24
114 18 137 15 389 -59 190 -55 250 -64 268 -43 10 13 9 21 -3 46 -21 41 -39
49 -170 78 -136 31 -229 67 -330 128 -84 51 -93 52 -220 25 -92 -19 -244 21
-341 91 -25 18 -45 39 -45 46 0 21 41 72 76 94 49 30 100 25 138 -13 18 -18
37 -42 43 -52 23 -41 73 23 73 93 0 48 17 80 54 102 19 11 39 33 46 49 15 36
23 37 142 8 l91 -21 29 32 c33 37 34 43 11 64 -31 27 -268 117 -350 132 -102
20 -260 97 -285 140 -9 17 -22 64 -29 104 -18 116 3 248 56 365 37 80 44 133
56 394 10 231 10 233 -12 272 -30 53 -75 83 -208 134 -121 48 -162 70 -293
158 -134 89 -158 113 -158 157 0 50 21 76 74 90 56 14 69 35 60 100 -7 57 4
85 46 106 35 18 45 52 55 184 9 134 23 190 55 222 51 51 222 91 491 114 201
17 262 28 307 55 38 23 40 41 16 136 -15 60 -15 69 -1 99 28 59 76 105 109
105 46 0 181 -37 277 -76 l86 -35 57 -117 c103 -210 252 -618 268 -735 6 -38
24 -104 42 -146 17 -42 57 -143 88 -226 58 -152 71 -172 150 -235 37 -30 60
-102 60 -191 0 -69 -6 -72 -98 -59 -80 11 -338 85 -369 106 -19 12 -23 24 -23
64 0 99 14 110 173 131 48 7 87 15 87 18 0 3 -30 28 -65 55 -76 57 -124 69
-235 61 -131 -10 -210 -25 -415 -75 -110 -27 -211 -51 -225 -54 -29 -6 -58
-51 -85 -135 l-17 -53 25 -22 c33 -28 43 -49 63 -137 21 -95 41 -134 99 -189
26 -25 69 -77 96 -117 61 -90 113 -130 264 -203 125 -61 209 -90 257 -90 65 0
158 62 158 105 0 38 -33 55 -145 75 -138 24 -157 42 -81 74 37 15 67 53 97
121 22 51 18 66 -27 96 l-29 19 95 0 c120 0 153 -9 215 -61 72 -59 148 -132
161 -154 9 -16 27 -20 105 -25 75 -4 100 -9 125 -27 59 -42 270 -270 361 -390
156 -204 182 -209 139 -26 -15 65 -30 128 -32 139 -6 31 -164 246 -265 359
-78 89 -113 150 -144 251 -30 95 -32 134 -9 134 9 0 55 -39 101 -87 76 -79 87
-96 109 -162 30 -89 55 -133 156 -277 77 -111 146 -184 172 -184 22 0 89 -54
135 -109 40 -48 42 -53 27 -70 -9 -9 -19 -32 -22 -50 -10 -47 -37 -61 -119
-61 l-70 0 33 -20 c37 -23 62 -73 62 -122 -1 -31 -1 -32 -15 -13 -28 39 -36
45 -64 45 -16 0 -39 -9 -52 -19 -20 -16 -22 -23 -14 -47 6 -16 26 -38 45 -49
34 -20 108 -91 186 -179 66 -75 114 -59 114 36 0 62 14 75 90 82 36 3 83 12
105 20 27 11 82 15 173 16 169 0 173 4 185 135 4 39 11 54 33 71 l27 22 -6
129 c-7 137 -27 245 -48 252 -7 2 -35 25 -62 50 l-49 46 -101 5 c-98 6 -100 6
-127 38 -33 40 -155 243 -243 407 -86 158 -101 175 -154 168 -23 -3 -56 0 -75
7 -18 7 -99 16 -179 19 l-146 7 -109 54 c-60 30 -125 71 -146 91 -34 32 -37
40 -36 84 0 40 -3 52 -23 66 -67 50 -83 66 -137 132 -61 75 -212 283 -212 292
0 3 39 5 87 5 l88 0 -101 103 c-124 126 -173 185 -224 273 -44 75 -52 124 -22
124 10 0 60 -20 111 -45 51 -25 95 -45 97 -45 3 0 -14 27 -37 60 -45 64 -91
106 -179 162 -50 31 -58 41 -82 105 -39 100 -39 103 25 103 l52 1 -36 32 c-19
17 -71 64 -115 103 -87 79 -118 121 -104 144 8 13 15 13 52 -2 180 -69 178
-69 262 -66 l81 3 -57 32 c-67 38 -82 60 -68 98 13 35 13 35 -12 36 -24 1 99
33 169 45 34 5 54 0 110 -24 37 -17 82 -33 98 -37 50 -9 135 12 233 60 170 82
186 77 -233 71 -203 -3 -391 -8 -417 -12 -93 -12 -39 38 82 77 53 18 100 23
260 28 195 6 196 6 261 38 36 18 74 42 84 53 18 19 17 20 -16 34 -103 42 -489
56 -664 23 -49 -9 -101 -17 -114 -17 -22 0 -23 3 -17 42 12 72 26 91 81 109
42 13 50 20 50 40 0 19 -6 25 -29 27 -55 7 -91 -8 -145 -58 -84 -77 -211 -114
-211 -62 0 19 43 47 205 132 158 83 314 180 331 206 18 26 12 74 -9 74 -6 0
-37 -14 -67 -31 -71 -40 -291 -141 -400 -184 -99 -38 -180 -83 -380 -210 -228
-144 -379 -229 -365 -203 32 55 95 120 196 205 95 78 119 103 119 123 0 32 17
50 46 50 32 0 50 22 58 70 8 54 68 118 158 172 38 22 71 45 75 51 11 18 -110
1 -168 -24 -53 -23 -323 -217 -345 -248 -14 -20 -131 -77 -140 -68 -16 16 42
87 105 127 95 63 240 170 364 272 60 48 113 88 118 88 5 0 53 30 107 66 53 36
93 64 87 62 -5 -1 -140 -68 -300 -148 -159 -80 -402 -197 -540 -259 -139 -64
-334 -163 -440 -223 -223 -129 -344 -189 -475 -235 -143 -51 -134 -49 -122
-26 39 72 401 339 529 389 69 27 251 138 398 242 86 61 249 219 278 270 l18
31 -83 -38 c-191 -88 -255 -121 -271 -139 -16 -17 -16 -22 -2 -56 15 -35 15
-37 -7 -45 -13 -5 -63 -15 -113 -21 -122 -15 -367 -75 -433 -105 -30 -14 -67
-25 -83 -25 -37 0 -161 49 -153 61 22 37 244 161 419 234 50 21 94 41 98 45 4
4 -13 13 -38 20 -86 24 -69 37 110 76 131 29 165 42 165 60 0 11 -24 14 -117
14 -120 0 -163 6 -163 21 0 20 52 31 227 45 203 17 267 28 260 47 -6 19 -46
25 -182 26 -87 1 -125 5 -114 11 9 5 72 25 140 44 l124 34 -65 31 c-36 17 -77
31 -92 31 -14 0 -102 -38 -195 -84z m-685 -925 c2 -15 -7 -34 -25 -53 -30 -33
-341 -242 -410 -277 -43 -21 -97 -29 -91 -12 4 13 189 175 267 235 70 54 227
139 245 133 6 -2 13 -14 14 -26z m1056 -64 c-33 -17 -82 -42 -110 -55 l-49
-24 35 31 c46 40 127 81 159 81 21 0 14 -7 -35 -33z m-214 -164 c15 -14 -75
-65 -178 -100 -64 -22 -126 -43 -137 -47 -24 -9 65 76 117 111 54 37 107 53
153 46 22 -3 42 -8 45 -10z m1357 -349 c-3 -3 -12 -4 -19 -1 -8 3 -5 6 6 6 11
1 17 -2 13 -5z m58 -2084 c91 -13 187 -44 254 -82 51 -29 53 -32 35 -45 -28
-21 -109 -10 -237 32 -260 86 -282 127 -52 95z m-1824 -45 l64 -24 -85 2 c-80
2 -85 3 -88 25 -5 30 27 29 109 -3z m2773 -68 c15 -22 48 -107 42 -107 -6 0
-76 110 -76 120 0 18 19 11 34 -13z m-2710 -76 c64 -16 122 -33 128 -39 5 -5
13 -34 16 -62 7 -54 13 -62 66 -80 82 -29 -66 -54 -267 -44 -124 5 -147 9
-143 21 4 8 20 64 38 124 18 60 35 109 38 109 3 0 59 -13 124 -29z m2900 -303
c8 -13 17 -39 20 -58 l7 -35 -46 50 c-25 27 -45 53 -45 57 0 18 50 7 64 -14z
m365 -194 c7 -6 -10 -73 -20 -79 -12 -8 -42 62 -35 82 5 13 39 11 55 -3z
m-3312 -114 c104 -47 111 -179 18 -325 -19 -29 -40 -55 -48 -58 -8 -3 -17 -20
-21 -37 -6 -31 -132 -220 -146 -220 -4 0 -12 12 -18 26 -15 30 -32 23 -32 -14
0 -15 -4 -33 -9 -41 -16 -24 -51 111 -51 194 0 76 -19 146 -48 178 -9 11 -38
30 -64 43 -27 13 -48 30 -48 37 0 7 16 29 36 48 20 18 46 54 58 79 21 44 23
45 76 51 30 4 89 18 130 33 90 31 112 31 167 6z m3137 -306 c9 -8 16 -22 16
-29 0 -20 -41 -45 -84 -52 -29 -4 -37 -2 -43 13 -4 12 -1 21 12 28 11 6 28 21
40 33 24 27 38 28 59 7z"/>
<path d="M10935 11300 c-27 -17 -93 -43 -146 -60 -98 -30 -131 -52 -112 -71
11 -11 79 4 231 53 106 33 138 57 122 88 -14 27 -36 24 -95 -10z"/>
<path d="M13245 10624 c-11 -3 -57 -12 -102 -21 -46 -9 -83 -19 -83 -23 0 -11
83 -30 132 -30 24 0 126 11 227 25 101 14 188 26 195 26 6 1 -23 7 -64 15 -70
12 -260 17 -305 8z"/>
<path d="M13357 10513 c-37 -6 -29 -26 14 -35 45 -9 310 -30 315 -25 9 9 -114
47 -181 57 -71 10 -98 10 -148 3z"/>
<path d="M14223 10353 c-22 -8 -14 -20 26 -36 40 -17 201 -50 208 -43 6 6 -83
55 -128 71 -41 15 -83 18 -106 8z"/>
<path d="M15010 9993 c0 -5 11 -20 24 -32 19 -18 33 -22 72 -19 l49 3 -55 22
c-30 11 -63 24 -72 28 -10 4 -18 3 -18 -2z"/>
<path d="M14610 9921 c0 -14 51 -48 107 -73 26 -11 81 -41 121 -65 41 -25 76
-42 79 -40 3 3 -5 23 -17 44 -26 47 -85 86 -181 118 -77 26 -109 31 -109 16z"/>
<path d="M13280 9730 c0 -45 28 -78 85 -99 81 -30 102 -27 73 12 -15 19 -138
107 -150 107 -4 0 -8 -9 -8 -20z"/>
<path d="M14023 9663 c-7 -3 -13 -10 -13 -17 0 -16 152 -147 260 -223 47 -34
96 -73 110 -88 31 -34 206 -185 214 -185 3 0 6 18 6 40 0 49 -30 112 -66 137
-63 44 -85 67 -102 106 -24 53 -38 65 -142 121 -169 92 -238 120 -267 109z"/>
<path d="M13350 9524 c0 -19 96 -186 111 -195 11 -5 41 -9 67 -7 l47 3 -42 28
c-24 15 -43 31 -43 36 0 5 20 14 45 21 25 7 45 16 45 20 0 6 -208 100 -222
100 -5 0 -8 -3 -8 -6z"/>
<path d="M15202 9294 c6 -133 44 -297 99 -430 34 -80 66 -114 110 -114 44 0
53 28 46 144 -8 154 -43 232 -130 288 l-48 31 6 46 c6 42 3 52 -27 96 -56 80
-61 75 -56 -61z"/>
<path d="M13445 9180 c-10 -17 13 -75 40 -100 53 -50 56 31 3 87 -24 25 -34
28 -43 13z"/>
<path d="M14630 9140 c0 -5 8 -14 19 -19 20 -11 101 -31 101 -25 0 6 -98 54
-110 54 -5 0 -10 -4 -10 -10z"/>
<path d="M14480 8598 c0 -17 49 -113 86 -169 51 -77 78 -92 208 -114 49 -9
123 -29 163 -45 41 -17 76 -30 79 -30 11 0 2 74 -12 101 -13 26 -52 49 -237
140 -195 96 -287 133 -287 117z"/>
<path d="M13680 8555 c0 -93 49 -217 91 -230 35 -11 89 -66 160 -161 58 -77
159 -174 182 -174 4 0 -27 51 -67 113 -40 61 -102 166 -137 232 -48 91 -80
136 -130 188 -77 77 -99 84 -99 32z"/>
<path d="M15013 8573 c-21 -8 -15 -42 12 -59 13 -9 42 -18 65 -21 32 -5 40 -2
40 10 0 15 -54 67 -70 67 -5 0 -14 2 -22 4 -7 3 -19 2 -25 -1z"/>
<path d="M14130 8519 c0 -41 29 -79 63 -79 24 0 21 19 -8 63 -28 41 -55 49
-55 16z"/>
<path d="M13620 8030 c0 -6 7 -26 14 -45 12 -29 20 -35 44 -35 45 0 122 12
122 19 0 7 -150 71 -168 71 -6 0 -12 -5 -12 -10z"/>
<path d="M15051 6988 c-4 -13 -11 -50 -15 -83 -4 -33 -17 -95 -28 -138 -11
-43 -18 -80 -15 -83 3 -3 26 8 50 25 85 58 109 160 61 256 -23 47 -41 55 -53
23z"/>
<path d="M14140 6125 c-16 -19 -6 -45 17 -46 62 -4 83 11 54 40 -25 25 -53 27
-71 6z"/>
<path d="M13237 4913 c-4 -4 -4 -27 -1 -53 8 -62 -8 -75 -99 -76 -59 -1 -74
-5 -88 -22 -16 -21 -36 -128 -25 -139 3 -4 25 2 48 13 31 14 62 18 115 17 69
-2 76 0 152 43 123 70 170 136 118 168 -15 9 -23 6 -44 -19 l-26 -29 -28 33
c-46 56 -102 85 -122 64z"/>
</g>
</svg>
